<svg width="173" height="173" viewBox="0 0 173 173" fill="none" xmlns="http://www.w3.org/2000/svg">
<path d="M112.424 95.2946C111.049 95.8678 109.616 96.3264 108.297 96.3838C106.234 96.4984 103.941 95.6385 102.737 94.6067C100.845 93.0017 99.4695 92.0845 98.8963 89.333C98.667 88.1293 98.7816 86.2949 99.0109 85.2058C99.5268 82.9129 98.9536 81.4798 97.3486 80.1041C96.0302 79.0149 94.3678 78.7283 92.5335 78.7283C90.6991 78.7283 91.215 78.4417 90.7565 78.1551C90.0113 77.7538 89.3807 76.8367 89.9539 75.6329C90.1259 75.2316 91.1004 74.3145 91.2724 74.1998C93.7372 72.7668 96.6607 73.2253 99.2976 74.3145C101.762 75.289 103.597 77.1806 106.291 79.7601C109.042 82.9129 109.501 83.7727 111.106 86.123C112.31 87.9573 113.456 89.9063 114.201 92.0845C114.66 93.4603 114.087 94.5494 112.424 95.2373V95.2946ZM90.6991 84.174C90.6991 82.9702 91.6736 82.0531 92.8774 82.0531C94.0812 82.0531 93.3933 82.1104 93.6226 82.1677C93.9092 82.2823 94.1958 82.4543 94.4251 82.6836C94.8264 83.0849 95.0557 83.6008 95.0557 84.174C95.0557 85.3778 94.0812 86.3523 92.8774 86.3523C91.6736 86.3523 90.7565 85.3778 90.7565 84.174H90.6991ZM83.7057 129.172C69.0884 117.708 62.0378 113.925 59.1143 114.096C56.3628 114.268 56.8787 117.364 57.5092 119.428C58.1398 121.434 58.9423 122.81 60.0888 124.587C60.8913 125.733 61.4072 127.51 59.2863 128.771C54.5858 131.695 46.3886 127.797 46.0447 127.625C36.5291 122.007 28.5613 114.612 23.0009 104.524C17.5553 94.7787 14.4599 84.346 13.9439 73.2253C13.8293 70.5312 14.5745 69.5567 17.2687 69.0981C20.8227 68.4676 24.434 68.2956 27.988 68.8115C42.8919 70.9898 55.5603 77.6392 66.2223 88.1866C72.2985 94.2055 76.8843 101.371 81.5848 108.364C86.6292 115.816 92.0176 122.924 98.8963 128.714C101.361 130.777 103.253 132.325 105.144 133.414C99.5268 134.045 90.1832 134.159 83.8204 129.115L83.7057 129.172ZM168.715 34.7044C166.938 33.8446 166.193 35.507 165.104 36.3095C164.76 36.5961 164.474 36.94 164.13 37.284C161.55 40.0355 158.512 41.8698 154.499 41.6405C148.71 41.2966 143.78 43.1309 139.366 47.6021C138.449 42.1564 135.354 38.889 130.653 36.7681C128.188 35.6789 125.723 34.5898 124.004 32.2396C122.8 30.5772 122.456 28.6855 121.883 26.8512C121.481 25.7048 121.138 24.6156 119.819 24.3863C118.443 24.1571 117.87 25.3608 117.354 26.3353C115.176 30.3479 114.316 34.7044 114.373 39.1756C114.545 49.2071 118.787 57.2323 127.214 62.9072C128.188 63.5378 128.418 64.2257 128.131 65.1428C127.558 67.0918 126.87 68.9835 126.239 70.9324C125.838 72.1935 125.265 72.4802 123.946 71.9069C119.303 69.958 115.348 67.0918 111.794 63.6524C105.832 57.8628 100.387 51.5 93.6799 46.4556C92.0749 45.2518 90.5272 44.1627 88.8648 43.1882C81.9861 36.4814 89.782 30.9785 91.559 30.3479C93.4506 29.66 92.2468 27.3098 86.1133 27.3671C80.0371 27.3671 74.4768 29.4307 67.3114 32.1822C66.2796 32.5835 65.1905 32.8701 64.044 33.1567C57.5666 31.9529 50.9171 31.6663 43.9238 32.4689C30.7395 33.9019 20.1921 40.1501 12.5109 50.8121C3.33923 63.5378 1.16097 78.0405 3.85514 93.1737C6.66395 109.109 14.8038 122.351 27.3575 132.669C40.3124 143.388 55.2737 148.605 72.3559 147.63C82.7313 147.057 94.2531 145.624 107.265 134.618C110.533 136.223 113.972 136.911 119.704 137.37C124.118 137.771 128.36 137.14 131.628 136.51C136.787 135.421 136.443 130.663 134.551 129.803C119.475 122.752 122.8 125.618 119.819 123.325C127.443 114.268 139.022 104.868 143.493 74.3718C143.837 71.9642 143.551 70.4165 143.493 68.4676C143.493 67.2638 143.723 66.8052 145.098 66.6905C148.882 66.232 152.55 65.2002 155.875 63.3658C165.62 58.0348 169.575 49.2644 170.492 38.7744C170.607 37.1693 170.492 35.507 168.773 34.6471L168.715 34.7044Z" fill="#566AB2"/>
</svg>
