<svg width="17" height="16" viewBox="0 0 17 16" fill="none" xmlns="http://www.w3.org/2000/svg">
<path d="M15.34 8.16663C15.34 7.64663 15.2933 7.14663 15.2067 6.66663H8.3V9.50663H12.2467C12.0733 10.42 11.5533 11.1933 10.7733 11.7133V13.56H13.1533C14.54 12.28 15.34 10.4 15.34 8.16663Z" fill="#4285F4"/>
<path d="M8.3 15.3334C10.28 15.3334 11.94 14.68 13.1533 13.56L10.7733 11.7134C10.12 12.1534 9.28667 12.42 8.3 12.42C6.39334 12.42 4.77334 11.1334 4.19334 9.40002H1.75334V11.2934C2.96 13.6867 5.43334 15.3334 8.3 15.3334Z" fill="#34A853"/>
<path d="M4.19334 9.39338C4.04667 8.95338 3.96 8.48671 3.96 8.00005C3.96 7.51338 4.04667 7.04671 4.19334 6.60671V4.71338H1.75334C1.25334 5.70005 0.966669 6.81338 0.966669 8.00005C0.966669 9.18671 1.25334 10.3 1.75334 11.2867L3.65334 9.80671L4.19334 9.39338Z" fill="#FBBC05"/>
<path d="M8.3 3.58663C9.38 3.58663 10.34 3.95996 11.1067 4.67996L13.2067 2.57996C11.9333 1.39329 10.28 0.666626 8.3 0.666626C5.43334 0.666626 2.96 2.31329 1.75334 4.71329L4.19334 6.60663C4.77334 4.87329 6.39334 3.58663 8.3 3.58663Z" fill="#EA4335"/>
</svg>
