<svg width="169" height="169" viewBox="0 0 169 169" fill="none" xmlns="http://www.w3.org/2000/svg">
<g clip-path="url(#clip0_34_64)">
<path d="M67.7572 105.784L118.213 68.4884C120.688 66.6628 124.228 67.3684 125.404 70.2132C131.608 85.1876 128.831 103.186 116.488 115.551C104.146 127.904 86.9764 130.615 71.274 124.444L54.1268 132.396C78.722 149.229 108.592 145.063 127.252 126.37C142.058 111.552 146.639 91.3476 142.349 73.1252L142.383 73.1588C136.167 46.3908 143.906 35.6948 159.776 13.8212C160.146 13.306 160.527 12.7796 160.908 12.2532L140.031 33.1524V33.0852L67.746 105.796" fill="black"/>
<path d="M57.3412 114.845C39.69 97.9668 42.7364 71.8372 57.7892 56.762C68.922 45.6068 87.178 41.0596 103.104 47.746L120.218 39.8388C117.138 37.61 113.184 35.2132 108.648 33.522C88.1636 25.0772 63.6244 29.2772 46.97 45.9428C30.954 61.9812 25.914 86.6436 34.5604 107.688C41.0228 123.413 30.4276 134.546 19.754 145.768C15.9684 149.744 12.1828 153.732 9.12524 157.943L57.3188 114.845" fill="black"/>
</g>
<defs>
<clipPath id="clip0_34_64">
<rect width="168" height="168" fill="white" transform="translate(0.613281 0.963623)"/>
</clipPath>
</defs>
</svg>
