<svg width="174" height="174" viewBox="0 0 174 174" fill="none" xmlns="http://www.w3.org/2000/svg">
<g clip-path="url(#clip0_36_78)">
<path d="M50.194 29.4657H50.0212L49.798 48.2937H49.9564C62.3044 48.2937 71.8876 58.0641 92.7244 93.2649L93.9844 95.4033L94.0708 95.5473L105.735 77.9937L105.648 77.8569C103.1 73.6839 100.464 69.5646 97.7428 65.5017C95.0639 61.4922 92.2421 57.5801 89.2828 53.7729C75.5092 36.1761 63.9892 29.4657 50.194 29.4657Z" fill="url(#paint0_linear_36_78)"/>
<path d="M50.0209 29.4657C36.1753 29.5377 23.9137 38.5233 15.0793 52.2897C15.0552 52.3304 15.0312 52.3712 15.0073 52.4121L31.2361 61.2753L31.3153 61.1529C36.4849 53.3553 42.9073 48.3801 49.8049 48.3009H49.9561L50.1865 29.4657H50.0209Z" fill="url(#paint1_linear_36_78)"/>
<path d="M15.0724 52.29L14.9932 52.4124C9.17561 61.4844 4.84121 72.63 2.50841 84.6468L2.47241 84.8052L20.7172 89.1252L20.746 88.9668C22.69 78.4044 26.4052 68.6052 31.2292 61.2828L31.3084 61.1604L15.0724 52.29Z" fill="url(#paint2_linear_36_78)"/>
<path d="M20.7474 88.9661L2.50979 84.6461L2.47379 84.8045C1.19939 91.4141 0.551387 98.1317 0.536987 104.864V105.029L19.2426 106.707V106.541C19.1745 100.65 19.6809 94.7662 20.7546 88.9733L20.7474 88.9661Z" fill="url(#paint3_linear_36_78)"/>
<path d="M19.8106 112.532C19.4751 110.598 19.285 108.641 19.2418 106.679V106.52L0.536165 104.835V105.008C0.515172 108.997 0.867103 112.979 1.58736 116.903L19.8394 112.691C19.8296 112.638 19.82 112.585 19.8106 112.532Z" fill="url(#paint4_linear_36_78)"/>
<path d="M24.08 122.274C22.0352 120.042 20.5951 116.831 19.8392 112.712L19.8104 112.561L1.55835 116.773L1.58715 116.924C2.96955 124.196 5.67675 130.244 9.55035 134.831L9.65115 134.953L24.1807 122.389C24.1446 122.351 24.1158 122.312 24.08 122.274Z" fill="url(#paint5_linear_36_78)"/>
<path d="M78.1526 70.1749C67.151 87.0949 60.4838 97.7149 60.4838 97.7149C45.8318 120.755 40.763 125.917 32.6126 125.917C31.0098 125.959 29.4168 125.654 27.9429 125.022C26.4691 124.391 25.1491 123.449 24.0734 122.26L9.55103 134.816L9.65183 134.939C15.0086 141.196 22.5542 144.666 31.8998 144.666C46.0334 144.666 56.1926 137.984 74.2646 106.29L86.9798 83.7541C84.1589 79.1482 81.2202 74.6202 78.1526 70.1749Z" fill="#0082FB"/>
<path d="M97.7509 43.4765L97.6357 43.5917C94.7557 46.6877 91.9765 50.1293 89.2837 53.7869C92.0053 57.2645 94.8133 61.1597 97.7437 65.5229C101.2 60.1733 104.425 55.8389 107.586 52.5125L107.701 52.3973L97.7509 43.4765Z" fill="url(#paint6_linear_36_78)"/>
<path d="M151.145 41.7993C143.477 34.0233 134.333 29.4657 124.556 29.4657C114.245 29.4657 105.569 35.1321 97.7502 43.4625L97.635 43.5777L107.585 52.5057L107.701 52.3833C112.849 47.0049 117.838 44.3193 123.368 44.3193C129.315 44.3193 134.888 47.1273 139.712 52.0593L139.82 52.1745L151.261 41.9145L151.145 41.7993Z" fill="#0082FB"/>
<path d="M173.321 102.366C172.889 77.4034 164.177 55.0906 151.261 41.9146L151.145 41.7994L139.712 52.0522L139.82 52.1674C149.54 62.1898 156.214 80.8234 156.819 102.359V102.524H173.321V102.366Z" fill="url(#paint7_linear_36_78)"/>
<path d="M173.321 102.545V102.38H156.819V102.538C156.847 103.546 156.862 104.569 156.862 105.591C156.862 111.459 155.991 116.204 154.212 119.631L154.133 119.789L166.431 132.62L166.524 132.476C170.988 125.564 173.335 115.966 173.335 104.324C173.335 103.726 173.335 103.136 173.321 102.545Z" fill="url(#paint8_linear_36_78)"/>
<path d="M154.212 119.61L154.133 119.754C152.592 122.648 150.396 124.578 147.531 125.42L153.132 143.147C154.212 142.782 155.265 142.344 156.286 141.836C160.273 139.821 163.663 136.797 166.121 133.067L166.438 132.599L166.524 132.455L154.212 119.61Z" fill="url(#paint9_linear_36_78)"/>
<path d="M143.96 125.896C142.073 125.896 140.417 125.615 138.79 124.888L133.044 143.046C136.277 144.148 139.719 144.644 143.556 144.644C147.099 144.644 150.346 144.119 153.291 143.096L147.675 125.37C146.472 125.73 145.227 125.91 143.96 125.896Z" fill="url(#paint10_linear_36_78)"/>
<path d="M132.462 119.71L132.361 119.588L119.142 133.369L119.257 133.491C123.843 138.401 128.228 141.447 133.203 143.117L138.942 124.973C136.847 124.073 134.816 122.432 132.462 119.71Z" fill="url(#paint11_linear_36_78)"/>
<path d="M132.36 119.574C128.4 114.951 123.49 107.247 115.779 94.8056L105.727 77.9864L105.648 77.8424L93.9841 95.396L94.0705 95.54L101.191 107.55C108.096 119.142 113.719 127.522 119.141 133.362L119.256 133.477L132.461 119.696C132.427 119.655 132.394 119.615 132.36 119.574Z" fill="url(#paint12_linear_36_78)"/>
</g>
<defs>
<linearGradient id="paint0_linear_36_78" x1="4295.23" y1="5923.88" x2="826.533" y2="1364.01" gradientUnits="userSpaceOnUse">
<stop offset="0.0006" stop-color="#0867DF"/>
<stop offset="0.4539" stop-color="#0668E1"/>
<stop offset="0.8591" stop-color="#0064E0"/>
</linearGradient>
<linearGradient id="paint1_linear_36_78" x1="777.341" y1="2442.99" x2="3252.33" y2="559.267" gradientUnits="userSpaceOnUse">
<stop offset="0.1323" stop-color="#0064DF"/>
<stop offset="0.9988" stop-color="#0064E0"/>
</linearGradient>
<linearGradient id="paint2_linear_36_78" x1="1105.82" y1="3335.3" x2="2114.83" y2="787.629" gradientUnits="userSpaceOnUse">
<stop offset="0.0147" stop-color="#0072EC"/>
<stop offset="0.6881" stop-color="#0064DF"/>
</linearGradient>
<linearGradient id="paint3_linear_36_78" x1="951.411" y1="2074.31" x2="1074.5" y2="433.465" gradientUnits="userSpaceOnUse">
<stop offset="0.0731" stop-color="#007CF6"/>
<stop offset="0.9943" stop-color="#0072EC"/>
</linearGradient>
<linearGradient id="paint4_linear_36_78" x1="1007.34" y1="808.365" x2="971.966" y2="544.306" gradientUnits="userSpaceOnUse">
<stop offset="0.0731" stop-color="#007FF9"/>
<stop offset="1" stop-color="#007CF6"/>
</linearGradient>
<linearGradient id="paint5_linear_36_78" x1="854.174" y1="392.506" x2="1394.15" y2="1541.51" gradientUnits="userSpaceOnUse">
<stop offset="0.0731" stop-color="#007FF9"/>
<stop offset="1" stop-color="#0082FB"/>
</linearGradient>
<linearGradient id="paint6_linear_36_78" x1="730.363" y1="1562.06" x2="1381.55" y2="658.788" gradientUnits="userSpaceOnUse">
<stop offset="0.2799" stop-color="#007FF8"/>
<stop offset="0.9141" stop-color="#0082FB"/>
</linearGradient>
<linearGradient id="paint7_linear_36_78" x1="1610.53" y1="420.419" x2="3056.95" y2="5758.14" gradientUnits="userSpaceOnUse">
<stop stop-color="#0082FB"/>
<stop offset="0.9995" stop-color="#0081FA"/>
</linearGradient>
<linearGradient id="paint8_linear_36_78" x1="1307.33" y1="243.328" x2="458.749" y2="1963.8" gradientUnits="userSpaceOnUse">
<stop offset="0.0619" stop-color="#0081FA"/>
<stop offset="1" stop-color="#0080F9"/>
</linearGradient>
<linearGradient id="paint9_linear_36_78" x1="722.695" y1="1515.81" x2="1407.39" y2="1048.01" gradientUnits="userSpaceOnUse">
<stop stop-color="#027AF3"/>
<stop offset="1" stop-color="#0080F9"/>
</linearGradient>
<linearGradient id="paint10_linear_36_78" x1="546.739" y1="1112.75" x2="1795.52" y2="1112.75" gradientUnits="userSpaceOnUse">
<stop stop-color="#0377EF"/>
<stop offset="0.9994" stop-color="#0279F1"/>
</linearGradient>
<linearGradient id="paint11_linear_36_78" x1="917.141" y1="950.136" x2="1620.23" y2="1365.2" gradientUnits="userSpaceOnUse">
<stop offset="0.0019" stop-color="#0471E9"/>
<stop offset="1" stop-color="#0377EF"/>
</linearGradient>
<linearGradient id="paint12_linear_36_78" x1="1335.01" y1="1174.9" x2="3631.63" y2="4071.27" gradientUnits="userSpaceOnUse">
<stop offset="0.2765" stop-color="#0867DF"/>
<stop offset="1" stop-color="#0471E9"/>
</linearGradient>
<clipPath id="clip0_36_78">
<rect width="172.8" height="172.8" fill="white" transform="translate(0.536987 0.665649)"/>
</clipPath>
</defs>
</svg>
