<svg width="188" height="133" viewBox="0 0 188 133" fill="none" xmlns="http://www.w3.org/2000/svg">
<g clip-path="url(#clip0_38_121)">
<path d="M53.9576 0.103943H27.3263V26.485H53.9576V0.103943Z" fill="black"/>
<path d="M160.507 0.103943H133.876V26.485H160.507V0.103943Z" fill="black"/>
<path d="M80.589 26.4849H27.3263V52.8659H80.589V26.4849Z" fill="black"/>
<path d="M160.523 26.4849H107.261V52.8659H160.523V26.4849Z" fill="black"/>
<path d="M160.491 52.866H27.3263V79.247H160.499V52.866H160.491Z" fill="black"/>
<path d="M53.9576 79.255H27.3263V105.636H53.9576V79.255Z" fill="black"/>
<path d="M107.229 79.255H80.5972V105.636H107.229V79.255Z" fill="black"/>
<path d="M160.507 79.255H133.876V105.636H160.507V79.255Z" fill="black"/>
<path d="M80.6132 105.652H0.703003V132.033H80.6132V105.652Z" fill="black"/>
<path d="M187.171 105.652H107.261V132.033H187.171V105.652Z" fill="black"/>
<path d="M53.9656 0.103943H27.3342V26.485H53.9656V0.103943Z" fill="#FFD800"/>
<path d="M160.499 0.103943H133.868V26.485H160.499V0.103943Z" fill="#FFD800"/>
<path d="M80.5969 26.4849H27.3342V52.8659H80.5969V26.4849Z" fill="#FFAF00"/>
<path d="M160.499 26.4849H107.237V52.8659H160.499V26.4849Z" fill="#FFAF00"/>
<path d="M160.507 52.866H27.3342V79.247H160.507V52.866Z" fill="#FF8205"/>
<path d="M53.9656 79.255H27.3342V105.636H53.9656V79.255Z" fill="#FA500F"/>
<path d="M107.229 79.255H80.5972V105.636H107.229V79.255Z" fill="#FA500F"/>
<path d="M160.499 79.255H133.868V105.636H160.499V79.255Z" fill="#FA500F"/>
<path d="M80.6132 105.652H0.703003V132.033H80.6132V105.652Z" fill="#E10500"/>
<path d="M187.147 105.652H107.237V132.033H187.147V105.652Z" fill="#E10500"/>
</g>
<defs>
<clipPath id="clip0_38_121">
<rect width="186.468" height="131.937" fill="white" transform="translate(0.703003 0.103943)"/>
</clipPath>
</defs>
</svg>
