<svg width="130" height="130" viewBox="0 0 130 130" fill="none" xmlns="http://www.w3.org/2000/svg">
<g clip-path="url(#clip0_66_2)">
<path d="M120.694 53.1976C122.147 48.8203 122.65 44.1831 122.168 39.596C121.686 35.0089 120.231 30.5773 117.9 26.5974C114.444 20.5818 109.167 15.8191 102.83 12.996C96.4926 10.1728 89.4225 9.43507 82.6389 10.8891C78.7849 6.60216 73.8708 3.40475 68.3901 1.61801C62.9094 -0.168725 57.055 -0.48188 51.4149 0.709998C45.7749 1.90188 40.5477 4.55682 36.2585 8.40819C31.9692 12.2596 28.7688 17.1717 26.9788 22.6514C22.4595 23.5781 18.1901 25.4588 14.4558 28.1677C10.7215 30.8766 7.60844 34.3514 5.32462 38.3597C1.83105 44.3653 0.337929 51.3263 1.06111 58.2364C1.78429 65.1465 4.68629 71.6475 9.34757 76.7996C7.88867 81.1749 7.38091 85.8112 7.85826 90.3984C8.3356 94.9857 9.78704 99.4182 12.1155 103.399C15.5759 109.417 20.8575 114.181 27.1993 117.004C33.5411 119.827 40.6155 120.564 47.4029 119.108C50.4647 122.556 54.2269 125.311 58.4383 127.189C62.6497 129.068 67.2133 130.026 71.8245 130C78.7775 130.006 85.5527 127.803 91.1721 123.708C96.7915 119.614 100.964 113.839 103.088 107.219C107.607 106.29 111.876 104.409 115.61 101.7C119.344 98.9912 122.458 95.5171 124.743 91.5097C128.195 85.5129 129.662 78.578 128.935 71.6969C128.208 64.8157 125.323 58.3402 120.694 53.1976ZM71.8245 121.491C66.13 121.5 60.6142 119.505 56.244 115.854L57.0126 115.418L82.8951 100.478C83.5392 100.1 84.0741 99.5614 84.447 98.9144C84.8199 98.2674 85.0182 97.5345 85.0222 96.7877V60.2962L95.9639 66.6261C96.0179 66.6535 96.0648 66.6933 96.1006 66.7422C96.1363 66.7912 96.16 66.8479 96.1697 66.9077V97.1468C96.156 103.599 93.5866 109.784 89.0239 114.346C84.4613 118.909 78.277 121.478 71.8245 121.491ZM19.4957 99.1456C16.6399 94.2143 15.6145 88.434 16.5999 82.8214L17.3691 83.2829L43.277 98.2231C43.9181 98.5993 44.6479 98.7976 45.3912 98.7976C46.1344 98.7976 46.8642 98.5993 47.5053 98.2231L79.1538 79.9771V92.6109C79.1508 92.6764 79.1331 92.7403 79.1019 92.798C79.0708 92.8557 79.0271 92.9056 78.9739 92.944L52.7584 108.064C47.1636 111.287 40.5186 112.158 34.2822 110.486C28.0457 108.814 22.7277 104.735 19.4957 99.1456ZM12.6794 42.7678C15.555 37.8049 20.0939 34.0195 25.4925 32.0818V62.8333C25.4827 63.5762 25.6726 64.3082 26.0421 64.9527C26.4117 65.5973 26.9475 66.1308 27.5936 66.4977L59.0883 84.6668L48.1461 90.9962C48.0869 91.0276 48.0208 91.0441 47.9538 91.0441C47.8867 91.0441 47.8207 91.0276 47.7615 90.9962L21.5974 75.9026C16.0131 72.6657 11.9392 67.3478 10.2677 61.1134C8.59619 54.879 9.46339 48.2363 12.6794 42.64V42.7678ZM102.576 63.6534L70.9789 45.305L81.8957 39C81.9549 38.9685 82.0209 38.9521 82.088 38.9521C82.155 38.9521 82.2211 38.9685 82.2803 39L108.444 54.1195C112.445 56.4279 115.706 59.8266 117.848 63.9189C119.989 68.0112 120.922 72.6282 120.538 77.2308C120.153 81.8335 118.468 86.2319 115.678 89.9125C112.887 93.5932 109.108 96.4042 104.78 98.0173V67.2658C104.757 66.5241 104.542 65.8011 104.156 65.1677C103.769 64.5343 103.225 64.0128 102.576 63.6534ZM113.467 47.2783L112.698 46.8168L86.8417 31.7487C86.1967 31.3702 85.4624 31.1707 84.7145 31.1707C83.9667 31.1707 83.2324 31.3702 82.5874 31.7487L50.9654 49.9942V37.3609C50.9587 37.2967 50.9694 37.2318 50.9965 37.1732C51.0236 37.1145 51.066 37.0643 51.1193 37.0278L77.2834 21.9337C81.2934 19.6236 85.8783 18.503 90.5018 18.703C95.1253 18.9029 99.5964 20.4152 103.392 23.063C107.188 25.7107 110.151 29.3844 111.935 33.6544C113.719 37.9245 114.251 42.6143 113.468 47.1754L113.467 47.2783ZM44.9936 69.6746L34.0519 63.3706C33.9972 63.3377 33.9503 63.2931 33.9148 63.24C33.8792 63.1869 33.8557 63.1267 33.8461 63.0635V32.9019C33.8521 28.2748 35.1752 23.7451 37.6608 19.8423C40.1463 15.9395 43.6915 12.825 47.882 10.8628C52.0724 8.9006 56.7348 8.1719 61.3241 8.76187C65.9134 9.35184 70.2399 11.2361 73.7978 14.1944L73.0286 14.6304L47.1467 29.5696C46.5025 29.9474 45.9677 30.4862 45.5948 31.1333C45.2218 31.7803 45.0236 32.5132 45.0196 33.2599L44.9936 69.6746ZM50.9389 56.862L65.0331 48.7381L79.1538 56.862V73.1087L65.0845 81.2321L50.9649 73.1087L50.9389 56.862Z" fill="black"/>
</g>
<defs>
<clipPath id="clip0_66_2">
<rect width="130" height="130" fill="white"/>
</clipPath>
</defs>
</svg>
