<svg width="124" height="144" viewBox="0 0 124 144" fill="none" xmlns="http://www.w3.org/2000/svg">
<g clip-path="url(#clip0_39_231)">
<path d="M123.081 43.3987H106.197V0.558655L65.0611 38.9227V0.558655H58.2091V38.9227L17.0611 0.558655V43.3987H0.177124V105.103H17.0011V143.575L58.1971 106.915V143.575H65.0491V106.915L106.245 143.575V105.103H123.069V43.3987H123.081ZM99.3451 16.3147V43.3387H70.3291L99.3451 16.3147ZM23.9251 16.3147L52.9411 43.3387H23.9251V16.3147ZM7.02912 98.2507V50.2507H52.8211L17.0131 83.1787V98.2507H7.02912ZM23.8651 86.1787L58.2091 54.6187V97.7467L23.8651 128.287V86.1307V86.1907V86.1787ZM99.4051 128.287L65.0611 97.7467V54.6187L99.4051 86.1787V128.335V128.275V128.287ZM116.229 98.2507H106.257V83.1787L70.4491 50.2507H116.241V98.2507H116.229Z" fill="#20808D"/>
</g>
<defs>
<clipPath id="clip0_39_231">
<rect width="122.904" height="143.028" fill="white" transform="translate(0.177124 0.558655)"/>
</clipPath>
</defs>
</svg>
