<svg width="153" height="152" viewBox="0 0 153 152" fill="none" xmlns="http://www.w3.org/2000/svg">
<g clip-path="url(#clip0_36_97)">
<path fill-rule="evenodd" clip-rule="evenodd" d="M100.303 60.3477C100.643 60.3477 100.728 60.5177 100.558 60.7727L94.7782 70.8877L76.7582 102.593C76.7582 102.763 76.5882 102.763 76.4182 102.763C76.2482 102.763 76.1632 102.763 76.0782 102.593L52.1932 60.9427C52.0232 60.6877 52.1932 60.6027 52.3632 60.6027H53.8932L100.388 60.4327L100.303 60.3477ZM56.8682 4.92766C56.6982 4.92766 56.6132 4.92766 56.5282 5.09766L36.7232 39.7777C36.5532 40.1177 36.2132 40.2877 35.7882 40.2877H15.9832C15.5582 40.2877 15.4732 40.4577 15.7282 40.7977L55.8482 111.008C56.0182 111.263 55.9332 111.433 55.5932 111.433H36.2982C35.7032 111.433 35.1932 111.773 34.9382 112.368L25.8432 128.348C25.5032 128.858 25.6732 129.198 26.3532 129.198H65.8782C66.2182 129.198 66.4732 129.368 66.5582 129.708L76.2482 146.708C76.5882 147.303 76.8432 147.303 77.1832 146.708L111.778 86.1877L117.218 76.6677C117.218 76.4977 117.388 76.4977 117.558 76.4977C117.728 76.4977 117.813 76.4977 117.898 76.6677L127.758 94.1777C127.928 94.4327 128.183 94.6027 128.523 94.6027L147.648 94.4327C147.733 94.4327 147.818 94.4327 147.903 94.2627V94.0077L127.843 58.8177C127.673 58.5627 127.673 58.3077 127.843 58.0527L129.883 54.5677L137.618 40.8827C137.788 40.6277 137.618 40.4577 137.363 40.4577H57.2082C56.7832 40.4577 56.6982 40.2877 56.9532 39.9477L66.8982 22.6077C67.0682 22.3527 67.0682 22.0977 66.8982 21.8427L57.4632 5.26766C57.4632 5.09766 57.2932 5.01266 57.1232 5.01266L56.8682 4.92766ZM80.5832 2.20766C83.3032 6.96766 86.0232 11.7277 88.6582 16.5727C88.9132 16.9977 89.2532 17.1677 89.7632 17.1677H128.098C129.288 17.1677 130.308 17.9327 131.158 19.4627L141.188 37.2277C142.463 39.5227 142.888 40.5427 141.358 43.0077C139.573 45.9827 137.788 48.9577 136.088 52.0177L133.538 56.6077C132.773 57.9677 132.008 58.5627 133.283 60.1777L151.643 92.2227C152.833 94.2627 152.408 95.6227 151.388 97.5777C148.328 103.018 145.268 108.373 142.123 113.728C141.018 115.598 139.658 116.278 137.448 116.278C132.093 116.193 126.738 116.278 121.383 116.363C121.128 116.363 120.958 116.533 120.788 116.703C114.583 127.668 108.378 138.548 102.088 149.428C100.898 151.468 99.4532 151.978 97.0732 151.978H76.2482C74.8032 151.978 73.7831 151.383 73.0182 150.108L63.7532 134.043C63.6682 133.788 63.4132 133.703 63.1582 133.703H27.7982C25.8432 133.873 23.9732 133.703 22.2732 133.108L11.2232 113.983C10.5432 112.708 10.5432 111.518 11.2232 110.243L19.5532 95.6227C19.8082 95.1977 19.8082 94.6877 19.5532 94.2627C15.2182 86.6977 10.8832 79.2177 6.63315 71.6527L1.19315 62.0477C0.088151 59.9227 0.00315091 58.6477 1.87315 55.4177C5.10315 49.8077 8.24815 44.1977 11.4782 38.5877C12.4132 36.9727 13.6032 36.2927 15.4732 36.2927H33.4082C33.7482 36.2927 34.0032 36.1227 34.1732 35.8677L53.5532 2.03766C54.2332 0.932664 55.1682 0.337664 56.4432 0.337664H67.4082L74.4632 0.167664C76.8431 0.167664 79.4782 0.422664 80.6682 2.54766L80.5832 2.20766Z" fill="#615CED"/>
</g>
<defs>
<clipPath id="clip0_36_97">
<rect width="151.954" height="151.81" fill="white" transform="translate(0.407715 0.167664)"/>
</clipPath>
</defs>
</svg>
